<svg xmlns="http://www.w3.org/2000/svg" viewBox="0 0 480 160" fill="none">
  <defs>
    <linearGradient id="gbrk" x1="0" y1="0" x2="480" y2="160" gradientUnits="userSpaceOnUse">
      <stop stop-color="#4c1d95"/>
      <stop offset="1" stop-color="#be185d"/>
    </linearGradient>
  </defs>
  <rect width="480" height="160" rx="18" fill="url(#gbrk)"/>
  <rect x="48" y="28" width="56" height="14" rx="3" fill="#22d3ee"/>
  <rect x="112" y="28" width="56" height="14" rx="3" fill="#a78bfa"/>
  <rect x="176" y="28" width="56" height="14" rx="3" fill="#f472b6"/>
  <rect x="240" y="28" width="56" height="14" rx="3" fill="#fbbf24"/>
  <rect x="304" y="28" width="56" height="14" rx="3" fill="#34d399"/>
  <rect x="368" y="28" width="56" height="14" rx="3" fill="#22d3ee"/>
  <rect x="48" y="50" width="56" height="14" rx="3" fill="#a78bfa"/>
  <rect x="112" y="50" width="56" height="14" rx="3" fill="#f472b6"/>
  <rect x="176" y="50" width="56" height="14" rx="3" fill="#fbbf24"/>
  <rect x="240" y="50" width="56" height="14" rx="3" fill="#34d399"/>
  <rect x="304" y="50" width="56" height="14" rx="3" fill="#22d3ee"/>
  <rect x="368" y="50" width="56" height="14" rx="3" fill="#a78bfa"/>
  <circle cx="240" cy="100" r="9" fill="#f472b6"/>
  <rect x="190" y="128" width="100" height="12" rx="6" fill="#e2e8f0"/>
</svg>
