<svg xmlns="http://www.w3.org/2000/svg" viewBox="0 0 480 160" fill="none">
  <defs>
    <linearGradient id="gmem" x1="0" y1="160" x2="480" y2="0" gradientUnits="userSpaceOnUse">
      <stop stop-color="#312e81"/>
      <stop offset="1" stop-color="#06b6d4"/>
    </linearGradient>
  </defs>
  <rect width="480" height="160" rx="18" fill="url(#gmem)"/>

  <!-- face-down cards -->
  <rect x="56" y="34" width="56" height="72" rx="10" fill="#1e1b4b"/>
  <rect x="70" y="62" width="28" height="8" rx="2" fill="#475569"/>
  <rect x="74" y="52" width="8" height="28" rx="2" fill="#475569"/>

  <rect x="128" y="34" width="56" height="72" rx="10" fill="#1e1b4b"/>
  <rect x="142" y="62" width="28" height="8" rx="2" fill="#475569"/>
  <rect x="146" y="52" width="8" height="28" rx="2" fill="#475569"/>

  <!-- matched / revealed diamond -->
  <rect x="200" y="34" width="56" height="72" rx="10" fill="#22d3ee"/>
  <path d="M228 52 L244 70 L228 88 L212 70 Z" fill="#0f172a"/>

  <!-- matched / revealed star-ish -->
  <rect x="272" y="34" width="56" height="72" rx="10" fill="#a78bfa"/>
  <circle cx="300" cy="70" r="14" fill="#1e1b4b"/>
  <circle cx="300" cy="70" r="6" fill="#c4b5fd"/>

  <!-- face-down -->
  <rect x="344" y="34" width="56" height="72" rx="10" fill="#1e1b4b"/>
  <rect x="358" y="62" width="28" height="8" rx="2" fill="#475569"/>
  <rect x="362" y="52" width="8" height="28" rx="2" fill="#475569"/>

  <rect x="416" y="46" width="40" height="56" rx="8" fill="#334155" opacity="0.55"/>
</svg>
